#!OML:ASF F:\VICON\USERDATA\INSTALL\rory3\rory3.ASF
:FULLY-SPECIFIED
:DEGREES
93
root 4.9600929016331365 17.823759711560133 40.71049404452292 -4.157311431470992 -2.5685643951258497 -1.1778337025318313
lfemur -5.181923769380245 -1.9611428729779228 -26.40764416813621
ltibia 27.47773385475014
lfoot -12.651689731493423 1.5611587110534826
ltoes 3.921065376123291
rfemur -27.463903837691987 0.18056012348124373 22.156317401856295
rtibia 69.05214680407362
rfoot -4.839273212308888 -6.505670874041915
rtoes 10.275080124681445
lowerback 1.0 0.04939491825179354 -1.8830964794622251
upperback 1.1985876975767165 -0.14083321493419343 0.6217069546249951
thorax -5.689735209568935 0.17048299394881286 1.3507238269886346
lowerneck -17.081792441411466 -2.7882417997192963 -2.265142750689744
upperneck 15.115084918604117 -2.6470651330473793 1.2566800278809542
head 8.469242899833063 -1.132138568848275 0.3966654262971152
lclavicle 3.530909578335885e-15 5.487144734378221e-16
lhumerus -32.01064223952608 2.9955473315700667 81.51268816101461
lradius 22.34099009514528
lwrist 4.694691296537263
lhand -26.46043287148674 22.86046322496726
lfingers nan
lthumb 0.08701642195269654 53.33486484293652
rclavicle -1.0724207399776264e-16 -7.635556111081314e-16
rhumerus -28.562858215959594 -21.28266124934525 -77.92089644094459
rradius 26.67842011696693
rwrist 4.551762511402734
rhand -17.810249757763376 1.0
rfingers nan
rthumb 8.429401948107028 -7.799603129484016
94
root 4.924579307554421 17.789317076196824 40.07925569709213 -3.969195778229733 -2.2622102047727806 -0.9452643631429893
lfemur -2.9182680374297254 -2.3454027992944972 -26.486437672370673
ltibia 26.80013410351961
lfoot -12.066706126216985 2.1237311940962966
ltoes 4.229142909177058
rfemur -30.11095586325919 0.49269589181149787 22.171543960280985
rtibia 61.98559284940853
rfoot -7.542326315785508 -7.281270933634558
rtoes 4.731148825646222
lowerback 1.0 -0.19537010871098348 -2.068064515874999
upperback 1.1626896298626406 -0.540950279405897 0.7344282057716908
thorax -5.955600927848133 -0.05261912900511467 2.0091913622181896
lowerneck -17.632180727807608 -2.797469659624335 -2.305413214467352
upperneck 14.903968324888442 -3.715047325985834 2.927380561078058
head 8.637339783662773 -1.5335353709941169 1.082345399480225
lclavicle 3.2440058908052637e-15 1.5212141159842682e-15
lhumerus -30.779892914487043 1.3950131374149723 81.80525770489962
lradius 24.18896045341943
lwrist 4.869387013235801
lhand -26.090457856318405 24.062869085524234
lfingers nan
lthumb 0.5997547455909154 54.369062924232324
rclavicle -1.5368749134237652e-15 -7.410631088618497e-16
rhumerus -29.509830739284272 -21.695371519411957 -77.48294984644211
rradius 27.146263408842994
rwrist 3.353300130392677
rhand -17.65605544521358 1.0
rfingers nan
rthumb 8.27469692927579 -7.687711489136759
95
root 4.935722552931104 17.780941740357672 42.15762267870915 -3.505545912420141 -1.5359834121859897 -0.14163917503420054
lfemur -0.11363691964832512 -2.241268226554013 -26.73784797163026
ltibia 24.246676512310707
lfoot -10.363008456930626 2.0741903167822526
ltoes 4.236149407506897
rfemur -30.537055281966847 1.4636299331938405 21.441856903815435
rtibia 52.36818340894125
rfoot -7.6055846909244895 -8.590909895495226
rtoes -0.2788563599830516
lowerback 1.0 -0.44823634804839874 -2.532898078633533
upperback 1.168792485381005 -0.910293421484834 1.013316874628575
thorax -5.495169864110831 -0.2571740674820644 2.5813861784772807
lowerneck -17.505059565229956 -2.7017150289793475 -2.4474585933252593
upperneck 14.320893863122567 -3.8591777667920457 2.9784113895239286
head 8.15026434554134 -1.5922039172363285 0.9926155711475395
lclavicle 1.6539567275256904e-15 -4.336528425726487e-16
lhumerus -29.66905916622673 0.2335284359788694 81.89626849829645
lradius 26.217215530945122
lwrist 5.251811195910439
lhand -26.736513157869993 22.152154798987986
lfingers nan
lthumb 0.004183498484659265 52.59442231534002
rclavicle 1.3804398602247678e-15 4.570425419489479e-16
rhumerus -30.123041211433062 -21.53131939133948 -77.13140684323221
rradius 27.204175809593682
rwrist 3.1716956412547295
rhand -17.59145861398669 1.0
rfingers nan
rthumb 8.264842644551885 -8.051405435206844
96
root 4.877529652403932 17.733022227187135 39.81166993051867 -3.354277312758178 -1.5468046741226362 -0.2571815141870264
lfemur 2.856172455900312 -1.9788229453447252 -26.58793709042284
ltibia 20.941651051970133
lfoot -8.262629163754257 0.7888202568998963
ltoes 4.108847360683109
rfemur -29.516304842988117 3.9247557194441773 20.61197972288276
rtibia 40.957584248432276
rfoot -6.8767708837520685 -10.007444019887702
rtoes 2.9962568211151495
lowerback 1.0 -0.46567770319618706 -2.97186351990618
upperback 1.2207705932542587 -1.018692336266151 1.1443361415553026
thorax -5.767641825352175 -0.36929390122350547 2.731326320637532
lowerneck -17.787779397323003 -2.768268960802787 -2.614030569075439
upperneck 14.207477317326473 -3.875209109630488 3.028646185088902
head 7.8781556296736905 -1.5805538084136828 0.9664948819962836
lclavicle 3.3769725801227235e-15 4.846301805549267e-16
lhumerus -28.338450415269644 -1.021335773236085 81.99244531230443
lradius 28.72616890793778
lwrist 5.8568252411884965
lhand -26.626585649985476 23.539893350493575
lfingers nan
lthumb 0.09204619265376213 53.74554300059659
rclavicle -6.093268582715527e-17 -4.263673800407393e-16
rhumerus -30.534025522796423 -22.01919130726427 -76.7120317660893
rradius 26.91842418159199
rwrist 3.074803577123742
rhand -17.629344987462293 1.0
rfingers nan
rthumb 8.316258379102658 -8.48518860081952
